<svg xmlns="http://www.w3.org/2000/svg" width="512" height="512" viewBox="0 0 512 512"><g fill="none" fill-rule="evenodd"><rect width="512" height="512" fill="#24B47E"/><path fill="#FFF" fill-rule="nonzero" d="M0,432 L203.218527,432 C297.02791,432 355,380.742188 355,309.65625 C355,248.695312 310.097981,208.828125 254.655582,206.71875 L254.655582,202.5 C304.616983,192.585938 338.135392,155.671875 338.135392,108 C338.135392,42.1875 285.855107,0 187.19715,0 L0,0 L0,432 Z M117.209026,338.34375 L117.209026,247.21875 L173.705463,247.21875 C209.331948,247.21875 231.045131,264.09375 231.045131,294.46875 C231.045131,323.367188 211.440024,338.34375 172.019002,338.34375 L117.209026,338.34375 Z M117.209026,174.65625 L117.209026,91.96875 L166.95962,91.96875 C196.051069,91.96875 217.553444,106.734375 217.553444,133.3125 C217.553444,159.890625 196.051069,174.65625 165.273159,174.65625 L117.209026,174.65625 Z" transform="translate(79 40)"/></g></svg>